<svg width="28" height="28" viewBox="0 0 28 28" fill="none" xmlns="http://www.w3.org/2000/svg">
<path d="M24.1369 4.58961L23.4105 3.86321C22.9262 3.37893 22.141 3.37893 21.6568 3.86319L17.7498 7.77009C17.2305 8.28942 16.8766 8.95086 16.7325 9.67105L16.3334 11.6667L18.329 11.2675C19.0491 11.1235 19.7106 10.7695 20.2299 10.2502L24.1369 6.34329C24.6211 5.85902 24.6211 5.07387 24.1369 4.58961Z" fill="#FFB639" stroke="#FFB639" stroke-width="1.875" stroke-linejoin="round"/>
<path d="M15.972 22.6995C15.75 22.1635 15.75 21.484 15.75 20.125C15.75 18.7659 15.75 18.0865 15.972 17.5505C16.268 16.8358 16.8358 16.268 17.5505 15.972C18.0865 15.75 18.7659 15.75 20.125 15.75C21.484 15.75 22.1635 15.75 22.6995 15.972C23.4142 16.268 23.982 16.8358 24.278 17.5505C24.5 18.0865 24.5 18.7659 24.5 20.125C24.5 21.484 24.5 22.1635 24.278 22.6995C23.982 23.4142 23.4142 23.982 22.6995 24.278C22.1635 24.5 21.484 24.5 20.125 24.5C18.7659 24.5 18.0865 24.5 17.5505 24.278C16.8358 23.982 16.268 23.4142 15.972 22.6995Z" fill="#FF8232" stroke="#FF8232" stroke-width="1.875" stroke-linecap="square" stroke-linejoin="round"/>
<path d="M3.72202 22.6995C3.5 22.1635 3.5 21.484 3.5 20.125C3.5 18.7659 3.5 18.0865 3.72202 17.5505C4.01805 16.8358 4.58584 16.268 5.30051 15.972C5.83651 15.75 6.51601 15.75 7.875 15.75C9.23399 15.75 9.91349 15.75 10.4495 15.972C11.1642 16.268 11.732 16.8358 12.028 17.5505C12.25 18.0865 12.25 18.7659 12.25 20.125C12.25 21.484 12.25 22.1635 12.028 22.6995C11.732 23.4142 11.1642 23.982 10.4495 24.278C9.91349 24.5 9.23399 24.5 7.875 24.5C6.51601 24.5 5.83651 24.5 5.30051 24.278C4.58584 23.982 4.01805 23.4142 3.72202 22.6995Z" fill="#FF8232" stroke="#FF8232" stroke-width="1.875" stroke-linecap="square" stroke-linejoin="round"/>
<path d="M3.72202 10.4495C3.5 9.91349 3.5 9.23399 3.5 7.875C3.5 6.51601 3.5 5.83651 3.72202 5.30051C4.01805 4.58584 4.58584 4.01805 5.30051 3.72202C5.83651 3.5 6.51601 3.5 7.875 3.5C9.23399 3.5 9.91349 3.5 10.4495 3.72202C11.1642 4.01805 11.732 4.58584 12.028 5.30051C12.25 5.83651 12.25 6.51601 12.25 7.875C12.25 9.23399 12.25 9.91349 12.028 10.4495C11.732 11.1642 11.1642 11.732 10.4495 12.028C9.91349 12.25 9.23399 12.25 7.875 12.25C6.51601 12.25 5.83651 12.25 5.30051 12.028C4.58584 11.732 4.01805 11.1642 3.72202 10.4495Z" fill="#FF8232" stroke="#FF8232" stroke-width="1.875" stroke-linecap="square" stroke-linejoin="round"/>
</svg>
