<svg width="20" height="20" viewBox="0 0 20 20" fill="none" xmlns="http://www.w3.org/2000/svg">
<path d="M10.7341 5.84709L14.7115 6.90683M9.88151 9.01113L11.8702 9.54096M9.98043 14.972L10.7759 15.184C13.0258 15.7834 14.1508 16.0831 15.0371 15.5744C15.9233 15.0655 16.2248 13.9469 16.8277 11.7096L17.6803 8.54563C18.2832 6.30833 18.5846 5.18969 18.0729 4.30843C17.5613 3.42716 16.4363 3.12742 14.1863 2.52794L13.3908 2.31599C11.1408 1.71651 10.0158 1.41678 9.12959 1.92558C8.24331 2.43438 7.94187 3.55302 7.33899 5.7903L6.48639 8.95429C5.88351 11.1915 5.58208 12.3102 6.09376 13.1915C6.60544 14.0728 7.73043 14.3725 9.98043 14.972Z" stroke="#707070" stroke-width="1.25" stroke-linecap="round"/>
<path d="M9.99999 17.4552L9.20641 17.6713C6.96168 18.2825 5.83934 18.5881 4.95515 18.0693C4.07097 17.5506 3.77023 16.41 3.16877 14.1288L2.31817 10.9028C1.71671 8.62159 1.41597 7.48099 1.92647 6.58244C2.36805 5.80516 3.33332 5.83346 4.58332 5.83336" stroke="#707070" stroke-width="1.25" stroke-linecap="round"/>
</svg>
