<svg width="20" height="20" viewBox="0 0 20 20" fill="none" xmlns="http://www.w3.org/2000/svg">
<path d="M2.5 9.16663C2.5 6.04185 2.5 4.47946 3.29576 3.38418C3.55276 3.03046 3.86383 2.71938 4.21756 2.46238C5.31283 1.66663 6.87522 1.66663 10 1.66663C13.1247 1.66663 14.6872 1.66663 15.7824 2.46238C16.1362 2.71938 16.4472 3.03046 16.7042 3.38418C17.5 4.47946 17.5 6.04185 17.5 9.16663V10.8333C17.5 13.958 17.5 15.5205 16.7042 16.6157C16.4472 16.9695 16.1362 17.2805 15.7824 17.5375C14.6872 18.3333 13.1247 18.3333 10 18.3333C6.87522 18.3333 5.31283 18.3333 4.21756 17.5375C3.86383 17.2805 3.55276 16.9695 3.29576 16.6157C2.5 15.5205 2.5 13.958 2.5 10.8333V9.16663Z" stroke="#707070" stroke-width="1.25"/>
<path d="M12.5 10.8334L11.7858 9.16671M11.7858 9.16671L10.4937 6.152C10.4111 5.95914 10.2162 5.83337 10 5.83337C9.78383 5.83337 9.58892 5.95914 9.50633 6.152L8.21428 9.16671M11.7858 9.16671H8.21428M7.5 10.8334L8.21428 9.16671" stroke="#707070" stroke-width="1.25" stroke-linecap="round" stroke-linejoin="round"/>
<path d="M6.66666 14.1667H13.3333" stroke="#707070" stroke-width="1.25" stroke-linecap="round" stroke-linejoin="round"/>
</svg>
