<svg width="20" height="20" viewBox="0 0 20 20" fill="none" xmlns="http://www.w3.org/2000/svg">
<path d="M1.66666 5L7.42751 8.26414C9.55132 9.4675 10.4487 9.4675 12.5725 8.26414L18.3333 5" stroke="#707070" stroke-width="1.25" stroke-linejoin="round"/>
<path d="M1.6798 11.2297C1.73427 13.7844 1.76151 15.0617 2.70412 16.0079C3.64672 16.9541 4.9586 16.987 7.58235 17.0529C9.19941 17.0936 10.8006 17.0936 12.4177 17.0529C15.0414 16.987 16.3532 16.9541 17.2959 16.0079C18.2385 15.0617 18.2657 13.7844 18.3202 11.2297C18.3377 10.4083 18.3377 9.59183 18.3202 8.77042C18.2657 6.2158 18.2385 4.93849 17.2959 3.9923C16.3532 3.04611 15.0414 3.01315 12.4177 2.94722C10.8006 2.90659 9.19941 2.90659 7.58234 2.94722C4.9586 3.01313 3.64672 3.04609 2.70411 3.99229C1.76151 4.93848 1.73427 6.21579 1.67979 8.77042C1.66227 9.59183 1.66228 10.4083 1.6798 11.2297Z" stroke="#707070" stroke-width="1.25" stroke-linejoin="round"/>
</svg>
