<svg width="20" height="20" viewBox="0 0 20 20" fill="none" xmlns="http://www.w3.org/2000/svg">
<path d="M1.66666 5.83333C1.66666 4.66656 1.66666 4.08317 1.89372 3.63752C2.09346 3.24552 2.41217 2.92681 2.80417 2.72707C3.24982 2.5 3.83321 2.5 4.99999 2.5C6.16676 2.5 6.75016 2.5 7.19581 2.72707C7.58781 2.92681 7.90651 3.24552 8.10626 3.63752C8.33332 4.08317 8.33332 4.66656 8.33332 5.83333V14.1667C8.33332 15.3334 8.33332 15.9168 8.10626 16.3625C7.90651 16.7545 7.58781 17.0732 7.19581 17.2729C6.75016 17.5 6.16676 17.5 4.99999 17.5C3.83321 17.5 3.24982 17.5 2.80417 17.2729C2.41217 17.0732 2.09346 16.7545 1.89372 16.3625C1.66666 15.9168 1.66666 15.3334 1.66666 14.1667V5.83333Z" stroke="#707070" stroke-width="1.25" stroke-linecap="round" stroke-linejoin="round"/>
<path d="M5 14.1666H5.00748" stroke="#707070" stroke-width="1.66667" stroke-linecap="round" stroke-linejoin="round"/>
<path d="M1.66666 5.83337H8.33332" stroke="#707070" stroke-width="1.25" stroke-linecap="round" stroke-linejoin="round"/>
<path d="M9.54048 6.89036C9.24473 5.78198 9.0969 5.2278 9.19873 4.74666C9.28831 4.32343 9.50898 3.93956 9.82923 3.65004C10.1932 3.3209 10.7451 3.17241 11.8489 2.87542C12.9526 2.57843 13.5046 2.42994 13.9836 2.53221C14.4051 2.62217 14.7874 2.8438 15.0757 3.16534C15.4035 3.53088 15.5514 4.08507 15.8471 5.19344L17.9595 13.1097C18.2552 14.218 18.4031 14.7722 18.3012 15.2533C18.2116 15.6766 17.991 16.0604 17.6707 16.35C17.3067 16.6791 16.7548 16.8276 15.6511 17.1246C14.5473 17.4216 13.9954 17.5701 13.5163 17.4678C13.0948 17.3778 12.7126 17.1562 12.4242 16.8347C12.0965 16.4691 11.9486 15.9149 11.6528 14.8066L9.54048 6.89036Z" stroke="#707070" stroke-width="1.25" stroke-linecap="round" stroke-linejoin="round"/>
<path d="M14.8177 13.9128L14.825 13.9109" stroke="#707070" stroke-width="1.66667" stroke-linecap="round" stroke-linejoin="round"/>
<path d="M10 6.66682L15.4167 5" stroke="#707070" stroke-width="1.25" stroke-linecap="round" stroke-linejoin="round"/>
</svg>
