<svg width="20" height="20" viewBox="0 0 20 20" fill="none" xmlns="http://www.w3.org/2000/svg">
<path d="M17.7646 5.95108L17.3533 5.23725C17.0422 4.69739 16.8867 4.42746 16.622 4.31982C16.3573 4.21219 16.058 4.29712 15.4594 4.46699L14.4426 4.7534C14.0604 4.84154 13.6594 4.79154 13.3105 4.61225L13.0298 4.45027C12.7305 4.25861 12.5003 3.97603 12.3729 3.64387L12.0947 2.81272C11.9117 2.2627 11.8202 1.9877 11.6023 1.8304C11.3846 1.6731 11.0953 1.6731 10.5166 1.6731H9.58759C9.00901 1.6731 8.71968 1.6731 8.50184 1.8304C8.28405 1.9877 8.19256 2.2627 8.00958 2.81272L7.73128 3.64387C7.60388 3.97603 7.37372 4.25861 7.07448 4.45027L6.79375 4.61225C6.44479 4.79154 6.04383 4.84154 5.66166 4.7534L4.6448 4.46699C4.04618 4.29712 3.74688 4.21219 3.48223 4.31982C3.21758 4.42746 3.06205 4.69739 2.75097 5.23725L2.33965 5.95108C2.04806 6.45712 1.90226 6.71015 1.93056 6.9795C1.95885 7.24885 2.15403 7.4659 2.54439 7.90002L3.40359 8.86059C3.61359 9.12642 3.76268 9.58975 3.76268 10.0063C3.76268 10.4231 3.61364 10.8863 3.40362 11.1522L2.54439 12.1128C2.15403 12.5469 1.95886 12.7639 1.93056 13.0333C1.90226 13.3027 2.04806 13.5557 2.33965 14.0617L2.75096 14.7755C3.06203 15.3153 3.21758 15.5853 3.48223 15.6929C3.74688 15.8006 4.04619 15.7157 4.64482 15.5458L5.66163 15.2593C6.04387 15.1712 6.4449 15.2213 6.7939 15.4006L7.07459 15.5626C7.37377 15.7543 7.60388 16.0368 7.73126 16.3689L8.00958 17.2002C8.19256 17.7502 8.28405 18.0252 8.50184 18.1825C8.71968 18.3398 9.00901 18.3398 9.58759 18.3398H10.5166C11.0953 18.3398 11.3846 18.3398 11.6023 18.1825C11.8202 18.0252 11.9117 17.7502 12.0947 17.2002L12.373 16.3689C12.5003 16.0368 12.7304 15.7543 13.0297 15.5626L13.3103 15.4006C13.6593 15.2213 14.0603 15.1712 14.4426 15.2593L15.4594 15.5458C16.058 15.7157 16.3573 15.8006 16.622 15.6929C16.8867 15.5853 17.0422 15.3153 17.3533 14.7755L17.7646 14.0617C18.0562 13.5557 18.2019 13.3027 18.1737 13.0333C18.1453 12.7639 17.9502 12.5469 17.5598 12.1128L16.7006 11.1522C16.4906 10.8863 16.3415 10.4231 16.3415 10.0063C16.3415 9.58975 16.4907 9.12642 16.7006 8.86059L17.5598 7.90002C17.9502 7.4659 18.1453 7.24885 18.1737 6.9795C18.2019 6.71015 18.0562 6.45712 17.7646 5.95108Z" stroke="#707070" stroke-width="1.25" stroke-linecap="round"/>
<path d="M12.9329 9.99992C12.9329 11.6108 11.6271 12.9166 10.0163 12.9166C8.40542 12.9166 7.09961 11.6108 7.09961 9.99992C7.09961 8.38909 8.40542 7.08325 10.0163 7.08325C11.6271 7.08325 12.9329 8.38909 12.9329 9.99992Z" stroke="#707070" stroke-width="1.25"/>
</svg>
