<svg width="28" height="28" viewBox="0 0 28 28" fill="none" xmlns="http://www.w3.org/2000/svg">
<path d="M6.99316 12.8333L7.27913 19.4015C7.28484 19.533 7.29906 19.6647 7.33718 19.7907C7.45498 20.1802 7.67209 20.534 8.00333 20.7718C10.595 22.6316 17.3718 22.6316 19.9634 20.7718C20.2949 20.534 20.5119 20.1802 20.6297 19.7907C20.6677 19.6647 20.682 19.533 20.6878 19.4015L20.9736 12.8333" fill="#FFB639"/>
<path d="M6.99316 12.8333L7.27913 19.4015C7.28484 19.533 7.29906 19.6647 7.33718 19.7907C7.45498 20.1802 7.67209 20.534 8.00333 20.7718C10.595 22.6316 17.3718 22.6316 19.9634 20.7718C20.2949 20.534 20.5119 20.1802 20.6297 19.7907C20.6677 19.6647 20.682 19.533 20.6878 19.4015L20.9736 12.8333" stroke="#FFB639" stroke-width="1.875" stroke-linecap="round" stroke-linejoin="round"/>
<path d="M2.33337 9.33333C2.33337 10.8987 11.7774 15.1667 13.9838 15.1667C16.1901 15.1667 25.6343 10.8987 25.6343 9.33333C25.6343 7.76792 16.1901 3.5 13.9838 3.5C11.7774 3.5 2.33337 7.76792 2.33337 9.33333Z" fill="#FF8232" stroke="#FF8232" stroke-width="1.875" stroke-linecap="round" stroke-linejoin="round"/>
<path d="M23.8856 11.0833V19.25M23.8856 19.25C22.9616 20.9373 22.5531 21.8414 22.1381 23.3333C22.048 23.8641 22.1195 24.1317 22.4854 24.3692C22.634 24.4657 22.8127 24.5 22.9898 24.5H24.7636C24.9522 24.5 25.1425 24.4607 25.2978 24.3536C25.6379 24.1191 25.7254 23.8618 25.6332 23.3333C25.2694 21.948 24.806 21.0009 23.8856 19.25Z" stroke="#FF8232" stroke-width="1.875" stroke-linecap="round" stroke-linejoin="round"/>
</svg>
