<svg width="20" height="20" viewBox="0 0 20 20" fill="none" xmlns="http://www.w3.org/2000/svg">
<path d="M2.08398 5.00004L6.66732 3.33337L11.2507 5.00004L9.16732 6.25004V7.50004C9.16732 7.50004 8.61173 7.08337 6.66732 7.08337C4.72288 7.08337 4.16732 7.50004 4.16732 7.50004V6.25004L2.08398 5.00004ZM2.08398 5.00004V8.33337" stroke="#707070" stroke-width="1.25" stroke-linecap="round" stroke-linejoin="round"/>
<path d="M9.16602 7.08337V7.82412C9.16602 9.25596 8.04672 10.4167 6.66602 10.4167C5.28531 10.4167 4.16602 9.25596 4.16602 7.82412V7.08337" stroke="#707070" stroke-width="1.25" stroke-linecap="round" stroke-linejoin="round"/>
<path d="M12.7652 9.19117C12.7652 9.19117 13.1692 8.89708 14.5833 8.89708C15.9975 8.89708 16.4015 9.19117 16.4015 9.19117M12.7652 9.19117V8.33333L11.25 7.5L14.5833 6.25L17.9167 7.5L16.4015 8.33333V9.19117M12.7652 9.19117V9.43183C12.7652 10.436 13.5792 11.25 14.5833 11.25C15.5875 11.25 16.4015 10.436 16.4015 9.43183V9.19117" stroke="#707070" stroke-width="1.25" stroke-linecap="round" stroke-linejoin="round"/>
<path d="M3.65356 13.2717C2.86757 13.7104 0.806773 14.6064 2.06194 15.7274C2.67507 16.275 3.35796 16.6667 4.2165 16.6667H9.11551C9.9741 16.6667 10.6569 16.275 11.2701 15.7274C12.5253 14.6064 10.4644 13.7104 9.67843 13.2717C7.83536 12.2428 5.49667 12.2428 3.65356 13.2717Z" stroke="#707070" stroke-width="1.25" stroke-linecap="round" stroke-linejoin="round"/>
<path d="M13.334 16.6667H16.4213C17.0652 16.6667 17.5774 16.3534 18.0372 15.9153C18.9787 15.0185 17.4331 14.3017 16.8436 13.9507C15.7808 13.3179 14.4983 13.1716 13.334 13.5118" stroke="#707070" stroke-width="1.25" stroke-linecap="round" stroke-linejoin="round"/>
</svg>
