<svg width="205" height="191" viewBox="0 0 205 191" fill="none" xmlns="http://www.w3.org/2000/svg">
<rect x="92.0166" y="67.1035" width="7.39619" height="2.88519" transform="rotate(-34 92.0166 67.1035)" fill="#9DED1A" fill-opacity="0.35"/>
<rect x="161.224" y="73.1215" width="7.73051" height="3.55383" transform="rotate(-57 161.224 73.1215)" fill="#FF21FB" fill-opacity="0.35"/>
<rect x="69.9541" y="91.5092" width="3.05001" height="1.88223" transform="rotate(39 69.9541 91.5092)" fill="#755FFE" fill-opacity="0.75"/>
<rect x="56.915" y="161.048" width="2.04705" height="2.21655" transform="rotate(-143 56.915 161.048)" fill="#480CA7" fill-opacity="0.45"/>
<rect x="177.603" y="179.77" width="1.37841" height="1.88223" transform="rotate(113 177.603 179.77)" fill="#F54721" fill-opacity="0.35"/>
<rect x="191.646" y="9.26605" width="5.39026" height="1.88223" transform="rotate(82 191.646 9.26605)" fill="#03A3F5" fill-opacity="0.6"/>
<rect x="200.673" y="28.9911" width="2.71569" height="1.88223" transform="rotate(135 200.673 28.9911)" fill="#FF21FB" fill-opacity="0.6"/>
<rect x="64.6025" y="7.26019" width="7.73051" height="3.88815" transform="rotate(-66 64.6025 7.26019)" fill="#DCBCFA" fill-opacity="0.35"/>
<rect x="161.556" y="107.557" width="5.05594" height="3.21951" transform="rotate(109 161.556 107.557)" fill="#FC9E1C" fill-opacity="0.6"/>
<rect x="12.7822" y="130.29" width="6.72754" height="2.21655" transform="rotate(129 12.7822 130.29)" fill="#755FFE" fill-opacity="0.75"/>
<rect x="184.29" y="152.69" width="5.39026" height="2.88519" transform="rotate(-119 184.29 152.69)" fill="#F54721" fill-opacity="0.85"/>
<rect x="65.2744" y="1.91107" width="2.04705" height="3.55383" transform="rotate(-69 65.2744 1.91107)" fill="#C9FCBE"/>
<rect x="122.106" y="6.25726" width="1.37841" height="2.21655" transform="rotate(-156 122.106 6.25726)" fill="#F54721" fill-opacity="0.9"/>
<rect x="99.04" y="165.06" width="2.71569" height="3.21951" transform="rotate(115 99.04 165.06)" fill="#480CA7" fill-opacity="0.35"/>
<rect x="107.396" y="168.069" width="7.39619" height="3.55383" transform="rotate(-144 107.396 168.069)" fill="#BA3E03" fill-opacity="0.9"/>
<rect x="140.161" y="50.0532" width="5.05594" height="2.21655" transform="rotate(151 140.161 50.0532)" fill="#FC9E1C" fill-opacity="0.45"/>
<rect x="44.8799" y="119.258" width="6.0589" height="1.88223" transform="rotate(141 44.8799 119.258)" fill="#C9FCBE" fill-opacity="0.6"/>
<rect x="30.8369" y="181.441" width="6.0589" height="2.88519" transform="rotate(-120 30.8369 181.441)" fill="#FC9E1C" fill-opacity="0.45"/>
<rect x="117.091" y="139.986" width="2.71569" height="2.21655" transform="rotate(10 117.091 139.986)" fill="#9DED1A" fill-opacity="0.65"/>
<rect x="184.29" y="156.702" width="5.39026" height="2.21655" transform="rotate(11 184.29 156.702)" fill="#03A3F5"/>
<rect x="81.6533" y="139.986" width="4.72162" height="3.88815" transform="rotate(60 81.6533 139.986)" fill="#F62584" fill-opacity="0.6"/>
<rect x="82.9932" y="15.6181" width="7.39619" height="3.88815" transform="rotate(-7 82.9932 15.6181)" fill="#4BC8EF" fill-opacity="0.65"/>
<rect x="147.849" y="157.705" width="2.38137" height="2.55087" transform="rotate(-73 147.849 157.705)" fill="#F54721" fill-opacity="0.9"/>
<circle cx="30.9972" cy="128.108" r="0.492288" fill="#F54721" fill-opacity="0.35"/>
<circle cx="198.991" cy="132.287" r="0.99377" fill="#F62584" fill-opacity="0.75"/>
<circle cx="19.63" cy="157.528" r="0.492288" fill="#F54721" fill-opacity="0.65"/>
<circle cx="43.3666" cy="84.3119" r="0.826609" fill="#F54721" fill-opacity="0.45"/>
<circle cx="128.617" cy="18.785" r="0.826609" fill="#9AF5FC" fill-opacity="0.6"/>
<circle cx="102.875" cy="61.2437" r="1.49525" fill="#F62584" fill-opacity="0.6"/>
<circle cx="120.926" cy="151.51" r="1.49525" fill="#F54721"/>
<circle cx="36.0096" cy="104.371" r="1.16093" fill="#FFED36" fill-opacity="0.45"/>
<circle cx="39.6886" cy="129.78" r="0.492288" fill="#DCBCFA" fill-opacity="0.85"/>
<circle cx="77.4666" cy="98.0193" r="1.16093" fill="#03A3F5"/>
<circle cx="203.841" cy="15.1075" r="0.492288" fill="#C9FCBE" fill-opacity="0.45"/>
<circle cx="20.9666" cy="166.22" r="1.16093" fill="#03A3F5" fill-opacity="0.9"/>
<circle cx="182.944" cy="11.2628" r="0.99377" fill="#03A3F5" fill-opacity="0.65"/>
<circle cx="203.673" cy="113.899" r="1.32809" fill="#755FFE"/>
<circle cx="54.0636" cy="102.7" r="0.492288" fill="#F62584" fill-opacity="0.35"/>
<circle cx="49.8838" cy="51.3813" r="1.32809" fill="#480CA7" fill-opacity="0.75"/>
<circle cx="45.5377" cy="144.991" r="0.99377" fill="#C9FCBE"/>
<circle cx="175.591" cy="94.1742" r="1.32809" fill="#03A3F5" fill-opacity="0.45"/>
<circle cx="18.6261" cy="95.3448" r="0.492288" fill="#755FFE"/>
<circle cx="117.75" cy="97.8518" r="0.659448" fill="#C9FCBE"/>
<circle cx="24.8095" cy="86.8192" r="1.32809" fill="#FF21FB" fill-opacity="0.6"/>
<circle cx="90.0026" cy="38.6773" r="0.99377" fill="#4BC8EF" fill-opacity="0.45"/>
<circle cx="181.272" cy="161.039" r="0.99377" fill="#DCBCFA" fill-opacity="0.75"/>
<path d="M130.356 10.1364L130.306 7.27341L132.81 8.66164L130.356 10.1364Z" fill="#03A3F5" fill-opacity="0.85"/>
<path d="M147.534 136.908L146.621 135.857L147.672 134.944L148.585 135.995L147.534 136.908Z" fill="#C9FCBE"/>
<path d="M24.4735 56.4114L24.6082 58.9818L22.3148 57.8133L24.4735 56.4114Z" fill="#FFED36" fill-opacity="0.6"/>
<path d="M63.1637 133.323L64.5433 132.321L64.7216 134.017L63.1637 133.323Z" fill="#F62584" fill-opacity="0.6"/>
<path d="M65.3384 169.808L66.8272 168.559L68.4754 169.589L68.0052 171.474L66.0665 171.61L65.3384 169.808Z" fill="#F54721"/>
<path d="M62.9709 116.435L63.8044 115.368L65.0767 115.831L65.0295 117.185L63.728 117.558L62.9709 116.435Z" fill="#9AF5FC" fill-opacity="0.75"/>
<path d="M95.4687 117.681L94.1428 119.887L91.9361 118.562L93.262 116.355L95.4687 117.681Z" fill="#9DED1A" fill-opacity="0.9"/>
<path d="M118.014 12.7553L116.785 13.8239L115.717 12.5946L116.946 11.526L118.014 12.7553Z" fill="#FFED36"/>
<path d="M37.765 133.726L39.5853 133.726L40.4955 135.303L39.5853 136.879L37.765 136.879L36.8548 135.303L37.765 133.726Z" fill="#DCBCFA" fill-opacity="0.85"/>
<path d="M58.0572 185.779L58.6879 187.195L57.5357 188.232L56.1929 187.457L56.5153 185.941L58.0572 185.779Z" fill="#DCBCFA" fill-opacity="0.9"/>
<path d="M47.3152 136.912L48.8146 136.276L49.451 137.775L47.9517 138.411L47.3152 136.912Z" fill="#4BC8EF" fill-opacity="0.9"/>
<path d="M184.967 134.653L184.933 132.71L186.771 132.077L187.94 133.629L186.826 135.221L184.967 134.653Z" fill="#4BC8EF" fill-opacity="0.35"/>
<path d="M71.6567 85.9041L74.2304 87.1593L71.8565 88.7606L71.6567 85.9041Z" fill="#FFED36" fill-opacity="0.35"/>
<path d="M47.4077 176.863L47.7636 177.958L46.9929 178.814L45.8663 178.575L45.5104 177.479L46.2811 176.623L47.4077 176.863Z" fill="#DCBCFA" fill-opacity="0.75"/>
<path d="M192.502 3.91693L191.504 3.34106V2.18933L192.502 1.61346L193.499 2.18933V3.34106L192.502 3.91693Z" fill="#F54721" fill-opacity="0.75"/>
<path d="M154.021 27.065L151.158 27.015L152.632 24.5605L154.021 27.065Z" fill="#03A3F5" fill-opacity="0.45"/>
<path d="M37.7247 154.184L36.9505 155.704L36.0217 154.273L37.7247 154.184Z" fill="#FF21FB"/>
<path d="M167.461 37.4807L166.364 35.4177L167.987 33.737L170.087 34.7612L169.762 37.075L167.461 37.4807Z" fill="#F54721" fill-opacity="0.45"/>
<path d="M157.284 107.343L158.598 107.015L159.315 108.163L158.445 109.201L157.19 108.693L157.284 107.343Z" fill="#FFED36" fill-opacity="0.85"/>
<path d="M178.085 7.74012L177.569 9.66701L176.158 8.25643L178.085 7.74012Z" fill="#480CA7" fill-opacity="0.85"/>
<path d="M8.28694 3.12838L7.922 5.19805L5.85232 4.83311L6.21726 2.76344L8.28694 3.12838Z" fill="#03A3F5"/>
<path d="M116.734 8.70051L117.531 9.27923L117.428 10.2584L116.528 10.6589L115.732 10.0802L115.835 9.10097L116.734 8.70051Z" fill="#C9FCBE" fill-opacity="0.85"/>
<path d="M9.25653 34.3173L7.61563 34.1158L6.96967 32.594L7.9646 31.2737L9.60549 31.4752L10.2515 32.997L9.25653 34.3173Z" fill="#FF21FB"/>
<path d="M172.137 151.249L172.143 152.536L173.125 153.368L171.838 153.375L171.006 154.356L170.999 153.07L170.018 152.238L171.304 152.231L172.137 151.249Z" fill="#FC9E1C" fill-opacity="0.35"/>
<path d="M65.3101 15.676L64.9804 14.1646L63.6185 13.4312L65.1299 13.1015L65.8633 11.7396L66.193 13.2509L67.5549 13.9844L66.0436 14.3141L65.3101 15.676Z" fill="#9AF5FC" fill-opacity="0.85"/>
<path d="M29.7878 164.032L29.5756 164.903L30.0986 165.631L29.2277 165.419L28.4998 165.942L28.712 165.071L28.189 164.343L29.0599 164.555L29.7878 164.032Z" fill="#DCBCFA" fill-opacity="0.85"/>
<path d="M102.824 10.1746L104.09 10.1319L104.089 8.86508L104.759 9.94027L105.855 9.30547L105.259 10.4233L106.357 11.0553L105.091 11.098L105.092 12.3648L104.422 11.2896L103.326 11.9244L103.922 10.8066L102.824 10.1746Z" fill="#FF21FB" fill-opacity="0.75"/>
<path d="M51.66 14.4043L50.773 14.5338L50.2939 15.2914L50.1644 14.4045L49.4068 13.9254L50.2938 13.7959L50.7728 13.0383L50.9023 13.9253L51.66 14.4043Z" fill="#4BC8EF" fill-opacity="0.9"/>
<path d="M127.354 22.9645L126.477 22.4154L125.9 23.2735L125.937 22.24L124.906 22.1691L125.819 21.6848L125.365 20.7558L126.241 21.3049L126.819 20.4468L126.781 21.4804L127.813 21.5512L126.899 22.0356L127.354 22.9645Z" fill="#BA3E03" fill-opacity="0.9"/>
<path d="M46.1538 89.5102L46.2488 90.5323L47.0864 91.1256L46.0644 91.2205L45.4711 92.0582L45.3762 91.0361L44.5385 90.4428L45.5606 90.3479L46.1538 89.5102Z" fill="#9AF5FC" fill-opacity="0.45"/>
<path d="M94.7054 167.862L95.3073 168.443L96.0462 168.05L95.6793 168.803L96.2813 169.384L95.4526 169.267L95.0858 170.02L94.9405 169.195L94.1119 169.079L94.8507 168.686L94.7054 167.862Z" fill="#FF21FB" fill-opacity="0.65"/>
<path d="M165.619 48.0276L164.915 48.3308L164.687 49.0624L164.384 48.3586L163.652 48.1307L164.356 47.8275L164.584 47.0959L164.887 47.7996L165.619 48.0276Z" fill="#4BC8EF"/>
<path d="M43.9973 7.00546L44.9211 5.93126L44.7069 4.53078L45.7811 5.45453L47.1816 5.24038L46.2579 6.31458L46.472 7.71506L45.3978 6.79131L43.9973 7.00546Z" fill="#9AF5FC" fill-opacity="0.45"/>
<path d="M81.7904 10.5214L82.6397 11.3707L83.71 10.8254L83.1647 11.8956L84.014 12.7449L82.8276 12.557L82.2823 13.6273L82.0944 12.4409L80.9081 12.253L81.9783 11.7077L81.7904 10.5214Z" fill="#F54721" fill-opacity="0.45"/>
<path d="M176.402 77.7327L177.466 77.0441L176.812 75.959L177.94 76.5356L178.553 75.4268L178.617 76.692L179.884 76.6683L178.821 77.3569L179.475 78.442L178.346 77.8654L177.734 78.9742L177.669 77.709L176.402 77.7327Z" fill="#FC9E1C" fill-opacity="0.35"/>
<path d="M86.3989 12.6162L85.877 11.8126L84.9514 12.0606L85.5545 11.3159L85.0326 10.5122L85.9272 10.8556L86.5302 10.1109L86.48 11.0679L87.3746 11.4113L86.449 11.6593L86.3989 12.6162Z" fill="#FF21FB" fill-opacity="0.45"/>
<path d="M103.374 6.67515L102.307 6.22894L101.274 6.7485L101.72 5.68147L101.201 4.64817L102.268 5.09439L103.301 4.57483L102.855 5.64185L103.374 6.67515Z" fill="#480CA7" fill-opacity="0.6"/>
<path d="M33.0118 187.705L32.6426 188.72L33.4934 189.385L32.4144 189.347L32.0451 190.362L31.7475 189.324L30.6685 189.286L31.5635 188.682L31.2659 187.644L32.1168 188.309L33.0118 187.705Z" fill="#BA3E03" fill-opacity="0.9"/>
<path d="M155.257 138.723L154.514 138.004L153.771 138.723L154.022 137.72L153.028 137.436L154.022 137.152L153.771 136.149L154.514 136.868L155.257 136.149L155.006 137.152L156 137.436L155.006 137.72L155.257 138.723Z" fill="#755FFE" fill-opacity="0.35"/>
<path d="M28.7883 117.828L29.4589 116.434L28.8373 115.018L30.2312 115.688L31.6477 115.067L30.9771 116.461L31.5987 117.877L30.2048 117.206L28.7883 117.828Z" fill="#9AF5FC" fill-opacity="0.65"/>
<path d="M52.888 138.867L54.0175 138.294L53.4807 137.146L54.5423 137.837L55.2676 136.799L55.1997 138.064L56.4619 138.173L55.3324 138.746L55.8692 139.894L54.8076 139.203L54.0823 140.241L54.1502 138.976L52.888 138.867Z" fill="#9DED1A" fill-opacity="0.9"/>
<path d="M130.902 67.459L132.297 67.0852L132.372 65.6432L133.159 66.8542L134.554 66.4805L133.645 67.6027L134.431 68.8138L133.083 68.2963L132.174 69.4185L132.25 67.9765L130.902 67.459Z" fill="#9AF5FC" fill-opacity="0.45"/>
<path d="M39.3447 127.906L39.3634 126.36L38.2014 125.339L39.7482 125.357L40.7692 124.195L40.7505 125.742L41.9125 126.763L40.3657 126.744L39.3447 127.906Z" fill="#FC9E1C" fill-opacity="0.9"/>
<path d="M203.977 114.14L203.56 114.957L204.363 115.401L203.446 115.448L203.463 116.366L202.964 115.595L202.178 116.069L202.596 115.252L201.793 114.808L202.709 114.761L202.692 113.843L203.191 114.613L203.977 114.14Z" fill="#03A3F5" fill-opacity="0.6"/>
<path d="M124.527 186.508L125.153 186.066L125.224 185.303L125.666 185.928L126.429 185.999L125.804 186.442L125.733 187.205L125.29 186.579L124.527 186.508Z" fill="#9AF5FC" fill-opacity="0.75"/>
<path d="M60.7743 111.489L62.0386 111.727L63.0429 110.923L62.8041 112.187L63.6085 113.192L62.3442 112.953L61.3399 113.757L61.5787 112.493L60.7743 111.489Z" fill="#4BC8EF" fill-opacity="0.85"/>
<g clip-path="url(#clip0_95_1215)">
<path fill-rule="evenodd" clip-rule="evenodd" d="M144.666 96C144.666 119.013 126.012 137.667 103 137.667C79.9872 137.667 61.333 119.013 61.333 96C61.333 72.9875 79.9872 54.3333 103 54.3333C126.012 54.3333 144.666 72.9875 144.666 96ZM119.791 83.375C120.377 83.961 120.705 84.7552 120.705 85.5833C120.705 86.4115 120.377 87.2057 119.791 87.7917L98.958 108.625C98.3721 109.21 97.5778 109.539 96.7497 109.539C95.9216 109.539 95.1273 109.21 94.5413 108.625L86.208 100.292C85.901 100.006 85.6547 99.6606 85.4839 99.2773C85.3131 98.8939 85.2213 98.4801 85.2139 98.0605C85.2065 97.6409 85.2837 97.2241 85.4408 96.835C85.598 96.4459 85.8319 96.0924 86.1287 95.7957C86.4254 95.4989 86.7789 95.265 87.168 95.1078C87.5571 94.9507 87.9739 94.8735 88.3935 94.8809C88.8131 94.8883 89.2269 94.9801 89.6103 95.1509C89.9936 95.3217 90.3386 95.568 90.6247 95.875L96.7497 102L106.062 92.6875L115.375 83.375C115.961 82.7898 116.755 82.4611 117.583 82.4611C118.411 82.4611 119.205 82.7898 119.791 83.375Z" fill="#009A07"/>
<circle cx="103" cy="96" r="50" fill="#009A07" fill-opacity="0.1"/>
</g>
<defs>
<clipPath id="clip0_95_1215">
<rect width="100" height="100" fill="white" transform="translate(53 46)"/>
</clipPath>
</defs>
</svg>
