<svg width="32" height="32" viewBox="0 0 32 32" fill="none" xmlns="http://www.w3.org/2000/svg">
<path opacity="0.2" d="M16 22C19.3137 22 22 19.3137 22 16C22 12.6863 19.3137 10 16 10C12.6863 10 10 12.6863 10 16C10 19.3137 12.6863 22 16 22Z" fill="#303030"/>
<path d="M16 16L28 4" stroke="#303030" stroke-width="1.5" stroke-linecap="round" stroke-linejoin="round"/>
<path d="M24.4875 7.5126C22.3601 5.3788 19.5091 4.12142 16.4989 3.98935C13.4887 3.85728 10.5385 4.86013 8.2324 6.79942C5.92628 8.73871 4.43225 11.4731 4.04601 14.4614C3.65978 17.4497 4.40948 20.4741 6.14675 22.936C7.88401 25.3978 10.4822 27.1178 13.4271 27.7555C16.372 28.3931 19.449 27.9019 22.049 26.3791C24.649 24.8563 26.5826 22.4129 27.4671 19.5325C28.3516 16.6521 28.1224 13.5446 26.825 10.8251" stroke="#303030" stroke-width="1.5" stroke-linecap="round" stroke-linejoin="round"/>
<path d="M20.2375 11.7624C19.2465 10.7742 17.9407 10.1644 16.5469 10.0388C15.1531 9.91324 13.7593 10.2799 12.6077 11.075C11.456 11.8702 10.6193 13.0436 10.2429 14.3915C9.8664 15.7394 9.97398 17.1766 10.5469 18.4534C11.1198 19.7302 12.1219 20.766 13.3791 21.3809C14.6363 21.9957 16.0691 22.1507 17.4287 21.8191C18.7883 21.4874 19.9888 20.6899 20.8216 19.5652C21.6544 18.4405 22.0669 17.0596 21.9875 15.6624" stroke="#303030" stroke-width="1.5" stroke-linecap="round" stroke-linejoin="round"/>
</svg>
