<svg width="20" height="20" viewBox="0 0 20 20" fill="none" xmlns="http://www.w3.org/2000/svg">
<path d="M9.99984 17.0833C11.5079 17.0833 12.9541 16.9343 14.2943 16.6611C15.9684 16.3199 16.8055 16.1492 17.5693 15.1671C18.3332 14.185 18.3332 13.0577 18.3332 10.8029V9.19704C18.3332 6.94223 18.3332 5.81485 17.5693 4.83277C16.8055 3.85069 15.9684 3.68007 14.2943 3.33881C12.9541 3.0656 11.5079 2.91663 9.99984 2.91663C8.49175 2.91663 7.04558 3.0656 5.7053 3.33881C4.03122 3.68007 3.19418 3.85069 2.43034 4.83277C1.6665 5.81485 1.6665 6.94223 1.6665 9.19704V10.8029C1.6665 13.0577 1.6665 14.185 2.43034 15.1671C3.19418 16.1492 4.03122 16.3199 5.7053 16.6611C7.04558 16.9343 8.49175 17.0833 9.99984 17.0833Z" stroke="#707070" stroke-width="1.5"/>
<path d="M13.3017 10.2608C13.1781 10.7656 12.5201 11.1282 11.2041 11.8535C9.77267 12.6421 9.057 13.0365 8.47733 12.8846C8.281 12.8331 8.10017 12.7426 7.94832 12.6199C7.5 12.2575 7.5 11.505 7.5 10C7.5 8.49512 7.5 7.74264 7.94832 7.38019C8.10017 7.25742 8.281 7.16695 8.47733 7.11549C9.057 6.96355 9.77267 7.35791 11.2041 8.14665C12.5201 8.87187 13.1781 9.23446 13.3017 9.73929C13.3438 9.91112 13.3438 10.089 13.3017 10.2608Z" stroke="#707070" stroke-width="1.5" stroke-linejoin="round"/>
</svg>
